<?xml version="1.0" encoding="utf-8"?>
<!-- Generator: Adobe Illustrator 23.0.5, SVG Export Plug-In . SVG Version: 6.00 Build 0)  -->
<svg version="1.1" id="Layer_1" xmlns="http://www.w3.org/2000/svg" xmlns:xlink="http://www.w3.org/1999/xlink" x="0px" y="0px"
	 viewBox="0 0 40 40" style="enable-background:new 0 0 40 40;" xml:space="preserve">
<style type="text/css">
	.st0{fill-rule:evenodd;clip-rule:evenodd;}
</style>
<path class="st0" d="M20.51,6.72c0.34,0.69,1.26,2.05,1.26,2.85c0,1.03-0.8,1.71-1.71,1.71c-0.34,0-0.91-0.11-1.26-0.45
	c-0.45-0.46-0.68-1.26-1.02-1.71c-2.28-3.88-4.67-5.59-7.64-5.59c-5.35,0-6.61,5.59-6.61,8.66c0,1.49,0.23,3.31,0.57,4.68
	c0.57,2.16,1.6,4.55,2.85,6.83c1.14,2.05,3.76,4.79,6.04,6.84c0.8,0.91,6.27,5.47,6.95,5.47c0.34,0,1.26-0.91,2.05-1.37
	c3.54-2.62,8.67-7.06,10.94-10.94c1.94-3.3,2.97-6.83,3.54-10.14v-2.85c-0.46-4.21-3.19-7.18-6.84-7.18c-1.94,0-4.1,1.48-4.79,1.48
	c-1.14,0-1.71-1.02-1.71-1.82c0-2.62,5.7-3.19,6.5-3.19C37.26,0,40,6.84,40,12.19c0,1.71-0.34,3.42-0.68,5.13
	c-0.35,1.6-0.92,3.31-1.71,5.02c-0.46,1.14-1.14,2.39-1.83,3.53c-1.14,1.94-3.53,4.56-5.47,6.49C30.09,32.59,21.65,40,19.94,40
	c-0.91,0-1.25-0.57-2.28-1.25c-3.98-2.74-9.11-6.73-12.3-11.06C3.19,24.62,0,17.55,0,13.9v-3.42C0.68,3.99,5.13,0,10.26,0
	C13.68,0,18.01,2.05,20.51,6.72z"/>
</svg>
